<svg width="32" height="32" viewBox="0 0 32 32" fill="none" xmlns="http://www.w3.org/2000/svg">
<path d="M9.33333 18.6667C9.33333 19.0203 9.19286 19.3594 8.94281 19.6095C8.69276 19.8595 8.35362 20 8 20H6.66667C6.31305 20 5.97391 19.8595 5.72386 19.6095C5.47381 19.3594 5.33333 19.0203 5.33333 18.6667C5.33333 18.313 5.47381 17.9739 5.72386 17.7239C5.97391 17.4738 6.31305 17.3333 6.66667 17.3333H8C8.35362 17.3333 8.69276 17.4738 8.94281 17.7239C9.19286 17.9739 9.33333 18.313 9.33333 18.6667ZM14.6667 17.3333H13.3333C12.9797 17.3333 12.6406 17.4738 12.3905 17.7239C12.1405 17.9739 12 18.313 12 18.6667C12 19.0203 12.1405 19.3594 12.3905 19.6095C12.6406 19.8595 12.9797 20 13.3333 20H14.6667C15.0203 20 15.3594 19.8595 15.6095 19.6095C15.8595 19.3594 16 19.0203 16 18.6667C16 18.313 15.8595 17.9739 15.6095 17.7239C15.3594 17.4738 15.0203 17.3333 14.6667 17.3333ZM8 22.6667H6.66667C6.31305 22.6667 5.97391 22.8071 5.72386 23.0572C5.47381 23.3072 5.33333 23.6464 5.33333 24C5.33333 24.3536 5.47381 24.6928 5.72386 24.9428C5.97391 25.1929 6.31305 25.3333 6.66667 25.3333H8C8.35362 25.3333 8.69276 25.1929 8.94281 24.9428C9.19286 24.6928 9.33333 24.3536 9.33333 24C9.33333 23.6464 9.19286 23.3072 8.94281 23.0572C8.69276 22.8071 8.35362 22.6667 8 22.6667ZM14.6667 22.6667H13.3333C12.9797 22.6667 12.6406 22.8071 12.3905 23.0572C12.1405 23.3072 12 23.6464 12 24C12 24.3536 12.1405 24.6928 12.3905 24.9428C12.6406 25.1929 12.9797 25.3333 13.3333 25.3333H14.6667C15.0203 25.3333 15.3594 25.1929 15.6095 24.9428C15.8595 24.6928 16 24.3536 16 24C16 23.6464 15.8595 23.3072 15.6095 23.0572C15.3594 22.8071 15.0203 22.6667 14.6667 22.6667ZM8 6.66667H6.66667C6.31305 6.66667 5.97391 6.80714 5.72386 7.05719C5.47381 7.30724 5.33333 7.64638 5.33333 8C5.33333 8.35362 5.47381 8.69276 5.72386 8.94281C5.97391 9.19286 6.31305 9.33333 6.66667 9.33333H8C8.35362 9.33333 8.69276 9.19286 8.94281 8.94281C9.19286 8.69276 9.33333 8.35362 9.33333 8C9.33333 7.64638 9.19286 7.30724 8.94281 7.05719C8.69276 6.80714 8.35362 6.66667 8 6.66667ZM14.6667 6.66667H13.3333C12.9797 6.66667 12.6406 6.80714 12.3905 7.05719C12.1405 7.30724 12 7.64638 12 8C12 8.35362 12.1405 8.69276 12.3905 8.94281C12.6406 9.19286 12.9797 9.33333 13.3333 9.33333H14.6667C15.0203 9.33333 15.3594 9.19286 15.6095 8.94281C15.8595 8.69276 16 8.35362 16 8C16 7.64638 15.8595 7.30724 15.6095 7.05719C15.3594 6.80714 15.0203 6.66667 14.6667 6.66667ZM8 12H6.66667C6.31305 12 5.97391 12.1405 5.72386 12.3905C5.47381 12.6406 5.33333 12.9797 5.33333 13.3333C5.33333 13.687 5.47381 14.0261 5.72386 14.2761C5.97391 14.5262 6.31305 14.6667 6.66667 14.6667H8C8.35362 14.6667 8.69276 14.5262 8.94281 14.2761C9.19286 14.0261 9.33333 13.687 9.33333 13.3333C9.33333 12.9797 9.19286 12.6406 8.94281 12.3905C8.69276 12.1405 8.35362 12 8 12ZM14.6667 12H13.3333C12.9797 12 12.6406 12.1405 12.3905 12.3905C12.1405 12.6406 12 12.9797 12 13.3333C12 13.687 12.1405 14.0261 12.3905 14.2761C12.6406 14.5262 12.9797 14.6667 13.3333 14.6667H14.6667C15.0203 14.6667 15.3594 14.5262 15.6095 14.2761C15.8595 14.0261 16 13.687 16 13.3333C16 12.9797 15.8595 12.6406 15.6095 12.3905C15.3594 12.1405 15.0203 12 14.6667 12ZM32 13.3333V25.3333C31.9979 27.1008 31.2948 28.7953 30.045 30.045C28.7953 31.2948 27.1008 31.9979 25.3333 32H6.66667C4.89921 31.9979 3.20474 31.2948 1.95496 30.045C0.705176 28.7953 0.00211714 27.1008 0 25.3333L0 6.66667C0.00211714 4.89921 0.705176 3.20474 1.95496 1.95496C3.20474 0.705176 4.89921 0.00211714 6.66667 0L14.6667 0C16.4341 0.00211714 18.1286 0.705176 19.3784 1.95496C20.6282 3.20474 21.3312 4.89921 21.3333 6.66667H25.3333C27.1008 6.66878 28.7953 7.37184 30.045 8.62163C31.2948 9.87141 31.9979 11.5659 32 13.3333ZM6.66667 29.3333H18.6667V6.66667C18.6667 5.6058 18.2452 4.58839 17.4951 3.83824C16.7449 3.08809 15.7275 2.66667 14.6667 2.66667H6.66667C5.6058 2.66667 4.58839 3.08809 3.83824 3.83824C3.08809 4.58839 2.66667 5.6058 2.66667 6.66667V25.3333C2.66667 26.3942 3.08809 27.4116 3.83824 28.1618C4.58839 28.9119 5.6058 29.3333 6.66667 29.3333ZM29.3333 13.3333C29.3333 12.2725 28.9119 11.2551 28.1618 10.5049C27.4116 9.75476 26.3942 9.33333 25.3333 9.33333H21.3333V29.3333H25.3333C26.3942 29.3333 27.4116 28.9119 28.1618 28.1618C28.9119 27.4116 29.3333 26.3942 29.3333 25.3333V13.3333ZM25.3333 17.3333C25.0696 17.3333 24.8118 17.4115 24.5926 17.558C24.3733 17.7045 24.2024 17.9128 24.1015 18.1564C24.0006 18.4001 23.9742 18.6681 24.0256 18.9268C24.0771 19.1854 24.2041 19.423 24.3905 19.6095C24.577 19.7959 24.8146 19.9229 25.0732 19.9744C25.3319 20.0258 25.5999 19.9994 25.8436 19.8985C26.0872 19.7976 26.2955 19.6267 26.442 19.4074C26.5885 19.1882 26.6667 18.9304 26.6667 18.6667C26.6667 18.313 26.5262 17.9739 26.2761 17.7239C26.0261 17.4738 25.687 17.3333 25.3333 17.3333ZM25.3333 22.6667C25.0696 22.6667 24.8118 22.7449 24.5926 22.8914C24.3733 23.0379 24.2024 23.2461 24.1015 23.4898C24.0006 23.7334 23.9742 24.0015 24.0256 24.2601C24.0771 24.5188 24.2041 24.7563 24.3905 24.9428C24.577 25.1293 24.8146 25.2563 25.0732 25.3077C25.3319 25.3592 25.5999 25.3328 25.8436 25.2318C26.0872 25.1309 26.2955 24.96 26.442 24.7408C26.5885 24.5215 26.6667 24.2637 26.6667 24C26.6667 23.6464 26.5262 23.3072 26.2761 23.0572C26.0261 22.8071 25.687 22.6667 25.3333 22.6667ZM25.3333 12C25.0696 12 24.8118 12.0782 24.5926 12.2247C24.3733 12.3712 24.2024 12.5795 24.1015 12.8231C24.0006 13.0667 23.9742 13.3348 24.0256 13.5935C24.0771 13.8521 24.2041 14.0897 24.3905 14.2761C24.577 14.4626 24.8146 14.5896 25.0732 14.641C25.3319 14.6925 25.5999 14.6661 25.8436 14.5652C26.0872 14.4643 26.2955 14.2934 26.442 14.0741C26.5885 13.8548 26.6667 13.597 26.6667 13.3333C26.6667 12.9797 26.5262 12.6406 26.2761 12.3905C26.0261 12.1405 25.687 12 25.3333 12Z" fill="#A3A3A3"/>
</svg>
