<svg width="32" height="32" viewBox="0 0 32 32" fill="none" xmlns="http://www.w3.org/2000/svg">
<path d="M17.3335 1.33351C17.3335 0.979888 17.474 0.640749 17.724 0.390701C17.9741 0.140652 18.3132 0.000176165 18.6668 0.000176165C22.2018 0.00405829 25.591 1.41006 28.0906 3.90971C30.5903 6.40935 31.9963 9.79848 32.0001 13.3335C32.0001 13.6871 31.8597 14.0263 31.6096 14.2763C31.3596 14.5264 31.0204 14.6668 30.6668 14.6668C30.3132 14.6668 29.974 14.5264 29.724 14.2763C29.474 14.0263 29.3335 13.6871 29.3335 13.3335C29.3303 10.5055 28.2055 7.79425 26.2058 5.79455C24.2061 3.79485 21.4948 2.67002 18.6668 2.66684C18.3132 2.66684 17.9741 2.52637 17.724 2.27632C17.474 2.02627 17.3335 1.68713 17.3335 1.33351ZM18.6668 8.00018C20.0813 8.00018 21.4379 8.56208 22.438 9.56227C23.4382 10.5625 24.0001 11.919 24.0001 13.3335C24.0001 13.6871 24.1406 14.0263 24.3907 14.2763C24.6407 14.5264 24.9799 14.6668 25.3335 14.6668C25.6871 14.6668 26.0262 14.5264 26.2763 14.2763C26.5263 14.0263 26.6668 13.6871 26.6668 13.3335C26.6647 11.2124 25.8212 9.17883 24.3213 7.679C22.8215 6.17916 20.7879 5.33563 18.6668 5.33351C18.3132 5.33351 17.9741 5.47399 17.724 5.72403C17.474 5.97408 17.3335 6.31322 17.3335 6.66684C17.3335 7.02047 17.474 7.3596 17.724 7.60965C17.9741 7.8597 18.3132 8.00018 18.6668 8.00018ZM30.7908 22.3188C31.5635 23.0937 31.9974 24.1433 31.9974 25.2375C31.9974 26.3318 31.5635 27.3814 30.7908 28.1562L29.5775 29.5548C18.6575 40.0095 -7.91586 13.4428 2.37748 2.48818L3.91081 1.15484C4.6865 0.403746 5.72672 -0.0117584 6.80642 -0.00177738C7.88611 0.00820364 8.91847 0.442867 9.68014 1.20818C9.72148 1.24951 12.1921 4.45884 12.1921 4.45884C12.9253 5.22901 13.3334 6.25208 13.3316 7.31538C13.3299 8.37868 12.9184 9.40041 12.1828 10.1682L10.6388 12.1095C11.4933 14.1857 12.7496 16.0725 14.3355 17.6616C15.9214 19.2508 17.8057 20.5109 19.8801 21.3695L21.8335 19.8162C22.6014 19.0811 23.6229 18.6702 24.6859 18.6687C25.7489 18.6672 26.7715 19.0753 27.5415 19.8082C27.5415 19.8082 30.7495 22.2775 30.7908 22.3188ZM28.9561 24.2575C28.9561 24.2575 25.7655 21.8028 25.7241 21.7615C25.4495 21.4892 25.0783 21.3363 24.6915 21.3363C24.3047 21.3363 23.9335 21.4892 23.6588 21.7615C23.6228 21.7988 20.9335 23.9415 20.9335 23.9415C20.7522 24.0858 20.5366 24.1803 20.3077 24.2159C20.0788 24.2514 19.8446 24.2267 19.6281 24.1442C16.9408 23.1436 14.4998 21.5772 12.4706 19.551C10.4414 17.5247 8.87135 15.0861 7.86681 12.4002C7.77774 12.1808 7.7487 11.9416 7.78268 11.7073C7.81666 11.473 7.91243 11.2519 8.06014 11.0668C8.06014 11.0668 10.2028 8.37618 10.2388 8.34151C10.5112 8.06682 10.664 7.69567 10.664 7.30884C10.664 6.92202 10.5112 6.55086 10.2388 6.27618C10.1975 6.23618 7.74281 3.04284 7.74281 3.04284C7.46401 2.79285 7.10015 2.65897 6.72581 2.66864C6.35147 2.67831 5.995 2.83079 5.72948 3.09484L4.19614 4.42818C-3.32652 13.4735 19.7015 35.2242 27.6281 27.7335L28.8428 26.3335C29.1275 26.0699 29.2984 25.7059 29.3196 25.3184C29.3407 24.931 29.2104 24.5506 28.9561 24.2575Z" fill="#A3A3A3"/>
</svg>
