<svg width="32" height="32" viewBox="0 0 32 32" fill="none" xmlns="http://www.w3.org/2000/svg">
<g clip-path="url(#clip0_194_67)">
<path d="M15.9441 32.0105L15.0147 31.2138C13.7333 30.141 2.54541 20.4786 2.54541 13.4109C2.54541 6.01102 8.54422 0.012207 15.9441 0.012207C23.344 0.012207 29.3428 6.01102 29.3428 13.4109C29.3428 20.4787 18.1548 30.141 16.8788 31.2191L15.9441 32.0105ZM15.9441 2.90939C10.147 2.91596 5.44922 7.61377 5.44266 13.4108C5.44266 17.851 12.3259 24.944 15.9441 28.1904C19.5623 24.9426 26.4455 17.8456 26.4455 13.4108C26.439 7.61377 21.7412 2.91602 15.9441 2.90939Z" fill="#A3A3A3"/>
<path d="M15.9439 18.7219C13.0107 18.7219 10.6328 16.344 10.6328 13.4107C10.6328 10.4775 13.0107 8.09961 15.9439 8.09961C18.8772 8.09961 21.2551 10.4775 21.2551 13.4107C21.2551 16.344 18.8772 18.7219 15.9439 18.7219ZM15.9439 10.7551C14.4773 10.7551 13.2884 11.944 13.2884 13.4107C13.2884 14.8773 14.4773 16.0662 15.9439 16.0662C17.4106 16.0662 18.5995 14.8773 18.5995 13.4107C18.5995 11.944 17.4106 10.7551 15.9439 10.7551Z" fill="#A3A3A3"/>
</g>
<defs>
<clipPath id="clip0_194_67">
<rect width="32" height="32" fill="white"/>
</clipPath>
</defs>
</svg>
