<svg width="32" height="30" viewBox="0 0 32 30" fill="none" xmlns="http://www.w3.org/2000/svg">
<path d="M25.3333 0.333496H6.66667C4.89921 0.335613 3.20474 1.03867 1.95496 2.28846C0.705176 3.53824 0.00211714 5.2327 0 7.00016L0 23.0002C0.00211714 24.7676 0.705176 26.4621 1.95496 27.7119C3.20474 28.9617 4.89921 29.6647 6.66667 29.6668H25.3333C27.1008 29.6647 28.7953 28.9617 30.045 27.7119C31.2948 26.4621 31.9979 24.7676 32 23.0002V7.00016C31.9979 5.2327 31.2948 3.53824 30.045 2.28846C28.7953 1.03867 27.1008 0.335613 25.3333 0.333496ZM6.66667 3.00016H25.3333C26.1317 3.00173 26.9114 3.24218 27.5719 3.69057C28.2325 4.13895 28.7438 4.77476 29.04 5.51616L18.8293 15.7282C18.0779 16.4766 17.0606 16.8968 16 16.8968C14.9394 16.8968 13.9221 16.4766 13.1707 15.7282L2.96 5.51616C3.2562 4.77476 3.76748 4.13895 4.42806 3.69057C5.08864 3.24218 5.86829 3.00173 6.66667 3.00016ZM25.3333 27.0002H6.66667C5.6058 27.0002 4.58839 26.5787 3.83824 25.8286C3.08809 25.0784 2.66667 24.061 2.66667 23.0002V9.00016L11.2853 17.6135C12.5368 18.8618 14.2323 19.5629 16 19.5629C17.7677 19.5629 19.4632 18.8618 20.7147 17.6135L29.3333 9.00016V23.0002C29.3333 24.061 28.9119 25.0784 28.1618 25.8286C27.4116 26.5787 26.3942 27.0002 25.3333 27.0002Z" fill="#A3A3A3"/>
</svg>
