<svg width="175" height="38" viewBox="0 0 175 38" fill="none" xmlns="http://www.w3.org/2000/svg">
<path d="M0 27.5797V0.179688H10.84L0 27.5797Z" fill="#111111"/>
<path d="M14.55 0.179688L0 37.8197H12.11L26.77 0.179688H14.55Z" fill="#111111"/>
<path d="M30.1698 0.179688H42.8898L28.2498 37.8197H15.5298L30.1698 0.179688Z" fill="#FF0700"/>
<path d="M48.1499 21.1897H38.3699L31.8999 37.8197H48.1499C51.6399 37.8197 54.4699 34.0997 54.4699 29.4997C54.4699 24.8997 51.6399 21.1797 48.1499 21.1797V21.1897Z" fill="#111111"/>
<path d="M48.1497 0.209961H46.4597L39.9897 16.84H48.1497C51.6397 16.84 54.4697 13.12 54.4697 8.51996C54.4797 3.92996 51.6397 0.209961 48.1497 0.209961Z" fill="#111111"/>
<path d="M64.7796 0.469727C64.8896 0.469727 64.9696 0.559727 65.0096 0.729727L67.6996 11.6897C67.7096 11.7897 67.7496 11.8297 67.8296 11.8297H67.9096C67.9796 11.8297 68.0196 11.7797 68.0396 11.6897L70.7296 1.64973C70.8496 1.18973 71.0096 0.879727 71.2096 0.709727C71.4096 0.539727 71.6596 0.469727 71.9596 0.469727H73.5996C73.9596 0.469727 74.2396 0.559727 74.4396 0.729727C74.6296 0.909727 74.7896 1.20973 74.9096 1.64973L77.6596 11.6897C77.6796 11.7897 77.7296 11.8297 77.7896 11.8297H77.8896C77.9596 11.8297 77.9996 11.7797 78.0196 11.6897L80.6396 0.729727C80.6596 0.619727 80.6996 0.549727 80.7496 0.519727C80.7996 0.489727 80.8496 0.469727 80.9096 0.469727H83.1496C83.2396 0.469727 83.2896 0.519727 83.3096 0.609727C83.3296 0.699727 83.3096 0.809727 83.2896 0.939727L80.1096 13.1797C79.9596 13.7897 79.7796 14.1997 79.5996 14.4097C79.4096 14.6197 79.1596 14.7297 78.8396 14.7297H76.8996C76.5796 14.7297 76.3296 14.6197 76.1496 14.3997C75.9696 14.1797 75.7896 13.7797 75.6296 13.1797L73.0296 3.50973C73.0196 3.41973 72.9696 3.36973 72.8996 3.36973H72.8296C72.7496 3.36973 72.7096 3.41973 72.6996 3.50973L70.0596 13.1797C69.8896 13.7797 69.7196 14.1897 69.5396 14.3997C69.3596 14.6097 69.1096 14.7297 68.7896 14.7297H66.8996C66.7096 14.7297 66.5496 14.7097 66.4096 14.6697C66.2696 14.6297 66.1496 14.5497 66.0396 14.4397C65.9296 14.3297 65.8296 14.1697 65.7496 13.9597C65.6696 13.7597 65.5896 13.4997 65.5096 13.1897L62.4596 0.949727C62.4296 0.809727 62.4196 0.699727 62.4396 0.609727C62.4596 0.519727 62.5096 0.479727 62.5996 0.479727H64.8196L64.7796 0.469727Z" fill="#111111"/>
<path d="M96.2298 0.469727C96.4798 0.469727 96.6098 0.619727 96.6098 0.919727V2.84973C96.6098 3.14973 96.4798 3.29973 96.2298 3.29973H88.9898C88.5598 3.29973 88.1998 3.33973 87.9198 3.42973C87.6398 3.51973 87.4098 3.66973 87.2398 3.87973C87.0698 4.08973 86.9498 4.37973 86.8798 4.73973C86.8098 5.09973 86.7798 5.53973 86.7798 6.06973V6.26973H96.1498C96.3898 6.26973 96.5098 6.41973 96.5098 6.71973V8.32973C96.5098 8.62973 96.3898 8.77973 96.1498 8.77973H86.7798V9.12973C86.7798 9.65973 86.8098 10.0997 86.8798 10.4597C86.9498 10.8197 87.0598 11.0997 87.2398 11.3197C87.4098 11.5297 87.6398 11.6797 87.9198 11.7697C88.1998 11.8597 88.5598 11.8997 88.9898 11.8997H96.2298C96.4798 11.8997 96.6098 12.0497 96.6098 12.3497V14.2797C96.6098 14.5797 96.4798 14.7297 96.2298 14.7297H88.9398C88.0998 14.7297 87.3898 14.6297 86.7998 14.4397C86.2098 14.2497 85.7398 13.9397 85.3698 13.5097C84.9998 13.0797 84.7298 12.5297 84.5598 11.8397C84.3898 11.1497 84.2998 10.3197 84.2998 9.34973V5.84973C84.2998 4.86973 84.3898 4.03973 84.5598 3.36973C84.7298 2.68973 84.9998 2.13973 85.3698 1.70973C85.7398 1.27973 86.2198 0.969727 86.7998 0.769727C87.3898 0.569727 88.0998 0.469727 88.9398 0.469727H96.2298Z" fill="#111111"/>
<path d="M100.649 0.469727C100.889 0.469727 101.009 0.619727 101.009 0.919727V9.03973C101.009 9.57973 101.049 10.0297 101.119 10.3897C101.189 10.7497 101.309 11.0297 101.479 11.2497C101.649 11.4597 101.869 11.6097 102.149 11.6997C102.429 11.7897 102.789 11.8297 103.219 11.8297H109.929C110.169 11.8297 110.289 11.9797 110.289 12.2797V14.2797C110.289 14.5797 110.169 14.7297 109.929 14.7297H103.119C102.279 14.7297 101.569 14.6297 100.979 14.4397C100.389 14.2497 99.9195 13.9397 99.5495 13.5097C99.1795 13.0797 98.9095 12.5297 98.7395 11.8397C98.5695 11.1497 98.4795 10.3197 98.4795 9.34973V0.919727C98.4795 0.619727 98.6095 0.469727 98.8595 0.469727H100.649Z" fill="#111111"/>
<path d="M123.769 0.469727C124.009 0.469727 124.129 0.619727 124.129 0.919727V2.91973C124.129 3.22973 124.009 3.38973 123.769 3.38973H116.389C115.959 3.38973 115.599 3.42973 115.319 3.51973C115.039 3.60973 114.809 3.75973 114.649 3.96973C114.479 4.17973 114.369 4.45973 114.289 4.80973C114.219 5.15973 114.179 5.60973 114.179 6.14973V9.03973C114.179 9.57973 114.219 10.0297 114.289 10.3897C114.359 10.7497 114.479 11.0297 114.649 11.2497C114.819 11.4597 115.039 11.6097 115.319 11.6997C115.599 11.7897 115.959 11.8297 116.389 11.8297H123.769C124.009 11.8297 124.129 11.9797 124.129 12.2797V14.2797C124.129 14.5797 124.009 14.7297 123.769 14.7297H116.289C115.449 14.7297 114.739 14.6297 114.149 14.4397C113.559 14.2497 113.089 13.9397 112.719 13.5097C112.349 13.0797 112.079 12.5297 111.909 11.8397C111.739 11.1497 111.649 10.3197 111.649 9.34973V5.84973C111.649 4.86973 111.739 4.03973 111.909 3.36973C112.079 2.68973 112.349 2.13973 112.719 1.70973C113.089 1.27973 113.569 0.969727 114.149 0.769727C114.739 0.569727 115.449 0.469727 116.289 0.469727H123.769Z" fill="#111111"/>
<path d="M135.54 0.469727C136.38 0.469727 137.1 0.569727 137.69 0.769727C138.28 0.969727 138.76 1.27973 139.13 1.70973C139.5 2.13973 139.77 2.68973 139.93 3.36973C140.09 4.04973 140.18 4.87973 140.18 5.84973V9.34973C140.18 10.3297 140.1 11.1597 139.93 11.8397C139.76 12.5297 139.5 13.0797 139.13 13.5097C138.76 13.9397 138.28 14.2497 137.69 14.4397C137.1 14.6297 136.38 14.7297 135.54 14.7297H130.42C129.58 14.7297 128.87 14.6297 128.28 14.4397C127.69 14.2497 127.22 13.9397 126.85 13.5097C126.48 13.0797 126.21 12.5297 126.04 11.8397C125.87 11.1497 125.78 10.3197 125.78 9.34973V5.84973C125.78 4.86973 125.87 4.03973 126.04 3.36973C126.21 2.68973 126.48 2.13973 126.85 1.70973C127.22 1.27973 127.7 0.969727 128.28 0.769727C128.87 0.569727 129.58 0.469727 130.42 0.469727H135.54ZM128.32 9.12973C128.32 9.65973 128.36 10.0997 128.43 10.4597C128.5 10.8197 128.62 11.0997 128.79 11.3197C128.96 11.5297 129.18 11.6797 129.46 11.7697C129.74 11.8597 130.1 11.8997 130.53 11.8997H135.45C135.88 11.8997 136.24 11.8597 136.52 11.7697C136.8 11.6797 137.03 11.5297 137.19 11.3197C137.36 11.1097 137.47 10.8197 137.55 10.4597C137.62 10.0997 137.66 9.65973 137.66 9.12973V6.07973C137.66 5.54973 137.62 5.10973 137.55 4.74973C137.48 4.38973 137.36 4.10973 137.19 3.88973C137.02 3.67973 136.8 3.52973 136.52 3.43973C136.24 3.34973 135.88 3.30973 135.45 3.30973H130.53C130.1 3.30973 129.74 3.34973 129.46 3.43973C129.18 3.52973 128.95 3.67973 128.79 3.88973C128.63 4.09973 128.51 4.38973 128.43 4.74973C128.35 5.10973 128.32 5.54973 128.32 6.07973V9.12973Z" fill="#111111"/>
<path d="M145.52 0.469727C145.76 0.469727 145.97 0.489727 146.15 0.529727C146.33 0.569727 146.48 0.649727 146.61 0.759727C146.74 0.869727 146.86 1.02973 146.97 1.22973C147.07 1.42973 147.18 1.68973 147.29 2.00973L150.74 11.7797C150.78 11.8997 150.86 11.9597 150.97 11.9597H151.17C151.28 11.9597 151.36 11.8997 151.4 11.7797L154.85 2.00973C154.96 1.67973 155.07 1.41973 155.17 1.22973C155.28 1.02973 155.39 0.879727 155.53 0.759727C155.66 0.639727 155.81 0.569727 155.99 0.529727C156.16 0.489727 156.37 0.469727 156.61 0.469727H158.38C158.95 0.469727 159.34 0.629727 159.54 0.949727C159.74 1.26973 159.84 1.81973 159.84 2.58973V14.2797C159.84 14.5797 159.71 14.7297 159.46 14.7297H157.77C157.53 14.7297 157.41 14.5797 157.41 14.2797V3.64973C157.41 3.50973 157.37 3.44973 157.28 3.44973H157.13C157.02 3.44973 156.95 3.49973 156.91 3.60973L153.56 12.7297C153.43 13.0997 153.29 13.4097 153.15 13.6597C153.01 13.9097 152.86 14.1197 152.7 14.2797C152.54 14.4397 152.36 14.5597 152.15 14.6297C151.94 14.6997 151.7 14.7297 151.43 14.7297H150.63C150.35 14.7297 150.11 14.6997 149.91 14.6297C149.71 14.5597 149.52 14.4497 149.36 14.2797C149.2 14.1197 149.05 13.9097 148.91 13.6597C148.77 13.4097 148.64 13.0997 148.5 12.7297L145.15 3.60973C145.12 3.49973 145.04 3.44973 144.93 3.44973H144.78C144.69 3.44973 144.65 3.51973 144.65 3.64973V14.2797C144.65 14.5797 144.53 14.7297 144.29 14.7297H142.6C142.35 14.7297 142.22 14.5797 142.22 14.2797V2.58973C142.22 1.81973 142.32 1.26973 142.52 0.949727C142.72 0.629727 143.11 0.469727 143.7 0.469727H145.51H145.52Z" fill="#111111"/>
<path d="M173.829 0.469727C174.079 0.469727 174.209 0.619727 174.209 0.919727V2.84973C174.209 3.14973 174.079 3.29973 173.829 3.29973H166.589C166.159 3.29973 165.799 3.33973 165.519 3.42973C165.239 3.51973 165.009 3.66973 164.839 3.87973C164.669 4.08973 164.549 4.37973 164.479 4.73973C164.409 5.09973 164.379 5.53973 164.379 6.06973V6.26973H173.749C173.989 6.26973 174.109 6.41973 174.109 6.71973V8.32973C174.109 8.62973 173.989 8.77973 173.749 8.77973H164.379V9.12973C164.379 9.65973 164.409 10.0997 164.479 10.4597C164.549 10.8197 164.659 11.0997 164.839 11.3197C165.009 11.5297 165.239 11.6797 165.519 11.7697C165.799 11.8597 166.159 11.8997 166.589 11.8997H173.829C174.079 11.8997 174.209 12.0497 174.209 12.3497V14.2797C174.209 14.5797 174.079 14.7297 173.829 14.7297H166.539C165.699 14.7297 164.989 14.6297 164.399 14.4397C163.809 14.2497 163.339 13.9397 162.969 13.5097C162.599 13.0797 162.329 12.5297 162.159 11.8397C161.989 11.1497 161.899 10.3197 161.899 9.34973V5.84973C161.899 4.86973 161.989 4.03973 162.159 3.36973C162.329 2.68973 162.599 2.13973 162.969 1.70973C163.339 1.27973 163.819 0.969727 164.399 0.769727C164.989 0.569727 165.699 0.469727 166.539 0.469727H173.829Z" fill="#111111"/>
<path d="M73.1998 21.8701C74.3398 21.8701 75.1598 22.1601 75.6398 22.7301C76.1198 23.3101 76.3598 24.1801 76.3598 25.3401V26.3501C76.3598 27.5301 75.9998 28.4201 75.2898 29.0201C76.0598 29.5801 76.4398 30.4901 76.4398 31.7401V32.9601C76.4398 33.5201 76.3898 34.0301 76.2898 34.4801C76.1898 34.9301 76.0298 35.3101 75.7998 35.6301C75.5698 35.9501 75.2698 36.1901 74.8898 36.3601C74.5098 36.5301 74.0498 36.6101 73.4898 36.6101H63.5898C63.2598 36.6101 63.0898 36.4001 63.0898 35.9801V22.5001C63.0898 22.0801 63.2598 21.8701 63.5898 21.8701H73.1898H73.1998ZM65.6498 28.0001H72.4798C73.0298 28.0001 73.4098 27.8901 73.6098 27.6801C73.8098 27.4701 73.9098 27.1601 73.9098 26.7501V26.0301C73.9098 25.5901 73.8098 25.2801 73.6198 25.0701C73.4298 24.8701 73.1098 24.7601 72.6798 24.7601H65.8698C65.7298 24.7601 65.6498 24.8501 65.6498 25.0301V27.9801V28.0001ZM65.6498 30.3001V33.4401C65.6498 33.6201 65.7198 33.7101 65.8698 33.7101H72.6998C73.1398 33.7101 73.4598 33.6101 73.6498 33.4001C73.8398 33.2001 73.9298 32.8701 73.9298 32.4201V31.6201C73.9298 31.1801 73.8298 30.8501 73.6198 30.6301C73.4098 30.4101 73.0298 30.2901 72.4798 30.2901H65.6498V30.3001Z" fill="#FF0700"/>
<path d="M80.5999 21.8701C80.8399 21.8701 80.9699 22.0201 80.9699 22.3301V36.1501C80.9699 36.4601 80.8499 36.6101 80.5999 36.6101H78.7999C78.5399 36.6101 78.4199 36.4601 78.4199 36.1501V22.3301C78.4199 22.0201 78.5499 21.8701 78.7999 21.8701H80.5999Z" fill="#111111"/>
<path d="M91.4797 21.8696C92.3797 21.8696 93.1497 21.9896 93.7997 22.2196C94.4397 22.4496 94.9697 22.8096 95.3797 23.2896C95.7897 23.7696 96.0897 24.3896 96.2897 25.1396C96.4797 25.8896 96.5797 26.7796 96.5797 27.7996V30.6596C96.5797 31.6796 96.4797 32.5696 96.2897 33.3196C96.0997 34.0696 95.7897 34.6896 95.3797 35.1696C94.9697 35.6496 94.4397 36.0096 93.7997 36.2396C93.1597 36.4696 92.3797 36.5896 91.4797 36.5896H83.6797C83.3497 36.5896 83.1797 36.3796 83.1797 35.9596V22.4796C83.1797 22.0596 83.3497 21.8496 83.6797 21.8496H91.4797V21.8696ZM85.7297 33.4096C85.7297 33.5896 85.7997 33.6796 85.9497 33.6796H91.4097C91.8997 33.6796 92.3097 33.6196 92.6397 33.5096C92.9697 33.3996 93.2397 33.2196 93.4497 32.9596C93.6597 32.7096 93.7997 32.3696 93.8897 31.9496C93.9797 31.5296 94.0197 31.0096 94.0197 30.3896V28.0696C94.0197 27.4496 93.9797 26.9296 93.8897 26.5096C93.7997 26.0896 93.6497 25.7496 93.4497 25.4996C93.2397 25.2496 92.9697 25.0596 92.6397 24.9496C92.3097 24.8396 91.8997 24.7796 91.4097 24.7796H85.9497C85.8097 24.7796 85.7297 24.8796 85.7297 25.0696V33.3896V33.4096Z" fill="#111111"/>
<path d="M110.24 21.8701C110.48 21.8701 110.61 22.0201 110.61 22.3301V24.3301C110.61 24.6401 110.49 24.7901 110.24 24.7901H101.89C101.57 24.7901 101.34 24.9001 101.21 25.1101C101.08 25.3201 101.01 25.6101 101.01 25.9701V26.6901C101.01 27.4801 101.3 27.8701 101.88 27.8701H108.13C109.1 27.8701 109.82 28.1801 110.31 28.8101C110.8 29.4301 111.04 30.3301 111.04 31.5001V33.1801C111.04 34.2001 110.8 35.0301 110.32 35.6701C109.84 36.3001 109.1 36.6201 108.09 36.6201H98.86C98.6 36.6201 98.48 36.4701 98.48 36.1601V34.1601C98.48 33.8501 98.61 33.7001 98.86 33.7001H107.61C107.93 33.7001 108.16 33.5901 108.29 33.3801C108.42 33.1701 108.49 32.8801 108.49 32.5201V31.6601C108.49 30.8701 108.2 30.4801 107.62 30.4801H101.37C100.4 30.4801 99.68 30.1701 99.19 29.5401C98.7 28.9201 98.46 28.0201 98.46 26.8501V25.3101C98.46 24.2901 98.7 23.4601 99.18 22.8301C99.66 22.2001 100.4 21.8801 101.41 21.8801H110.24V21.8701Z" fill="#111111"/>
</svg>
