<svg width="31" height="33" viewBox="0 0 31 33" fill="none" xmlns="http://www.w3.org/2000/svg">
<path d="M28.3906 14.2865L28.3811 14.2821L2.9398 3.21086C2.72581 3.11689 2.49295 3.08004 2.26207 3.10359C2.03118 3.12715 1.80946 3.21039 1.61674 3.34586C1.41312 3.48584 1.24587 3.67674 1.13003 3.90137C1.01419 4.126 0.953402 4.37733 0.953125 4.63273L0.953125 11.7134C0.953238 12.0625 1.06944 12.4007 1.28171 12.6696C1.49397 12.9385 1.789 13.1213 2.11594 13.1865L15.9917 15.8784C16.0462 15.8892 16.0954 15.9197 16.1308 15.9645C16.1662 16.0094 16.1855 16.0658 16.1855 16.124C16.1855 16.1822 16.1662 16.2386 16.1308 16.2835C16.0954 16.3283 16.0462 16.3588 15.9917 16.3696L2.11653 19.0615C1.78969 19.1265 1.49467 19.309 1.28232 19.5777C1.06996 19.8464 0.953542 20.1843 0.953125 20.5334L0.953125 27.6152C0.952967 27.8591 1.01052 28.0992 1.12063 28.314C1.23074 28.5288 1.38995 28.7116 1.58397 28.8459C1.81737 29.0086 2.09128 29.0955 2.37149 29.0959C2.5663 29.0957 2.75911 29.0547 2.9386 28.9752L28.3793 17.9671L28.3906 17.9615C28.7331 17.8071 29.0249 17.5507 29.2299 17.2241C29.4349 16.8975 29.5442 16.5151 29.5442 16.124C29.5442 15.7329 29.4349 15.3504 29.2299 15.0238C29.0249 14.6973 28.7331 14.4409 28.3906 14.2865Z" fill="white"/>
</svg>
